<svg aria-hidden="true" style="position: absolute; width: 0; height: 0; overflow: hidden;" version="1.1" xmlns="http://www.w3.org/2000/svg" xmlns:xlink="http://www.w3.org/1999/xlink">
<defs>
<symbol id="icon-logo-icon" viewBox="0 0 41 32">
<path d="M38.196 0.196c-3.861 0.221-11.532 1.019-16.268 3.924-0.328 0.2-0.513 0.557-0.513 0.929v25.676c0 0.815 0.89 1.331 1.64 0.952 4.872-2.457 11.921-3.128 15.405-3.31 1.19-0.062 2.115-1.018 2.115-2.164v-23.839c0-1.25-1.081-2.24-2.379-2.168zM18.649 4.121c-4.736-2.906-12.409-3.704-16.268-3.924-1.3-0.073-2.38 0.917-2.38 2.167v23.84c0 1.146 0.925 2.101 2.115 2.164 3.486 0.183 10.537 0.854 15.412 3.314 0.747 0.377 1.634-0.137 1.634-0.951v-25.694c0-0.002 0-0.005 0-0.007 0-0.383-0.203-0.72-0.507-0.907l-0.005-0.003z"></path>
</symbol>
<symbol id="icon-youtube" viewBox="0 0 32 32">
<path d="M29.399 5.928c-0.867-0.624-3.284-1.453-13.407-1.453-10.849 0-12.459 0.952-12.975 1.264-2.751 1.651-3.011 8.963-3.035 10.445 0.033 1.959 0.349 8.472 3.032 10.084 0.516 0.311 2.116 1.257 12.977 1.257 10.129 0 12.543-0.827 13.407-1.447 2.343-1.685 2.612-7.491 2.619-9.92-0.007-1.955-0.212-8.496-2.62-10.231zM28.229 24.456c-0.347 0.251-2.349 1.069-12.237 1.069-9.56 0-11.567-0.743-11.947-0.971-0.964-0.579-1.983-3.653-2.063-8.376 0.080-4.713 1.112-8.153 2.065-8.725 0.38-0.229 2.393-0.977 11.944-0.977 9.88 0 11.887 0.824 12.237 1.076 0.857 0.616 1.773 3.864 1.787 8.613-0.013 4.823-0.936 7.679-1.787 8.291zM22.513 15.213l-8.999-5.521c-0.147-0.090-0.325-0.143-0.515-0.143-0.551 0-0.998 0.446-1 0.997v11.045c0 0.552 0.448 0.999 1 0.999 0.191 0 0.369-0.053 0.52-0.146l-0.004 0.003 8.997-5.523c0.292-0.178 0.484-0.495 0.484-0.857s-0.192-0.679-0.48-0.854l-0.004-0.002zM13.999 19.821v-7.501l6.063 3.751-6.063 3.752z"></path>
</symbol>
<symbol id="icon-twitter" viewBox="0 0 32 32">
<path d="M21.387 4.96c1.653 0 3.145 0.675 4.196 1.76 1.374-0.268 2.596-0.737 3.704-1.382l-0.056 0.030c-0.453 1.322-1.345 2.394-2.499 3.068l-0.027 0.014c1.223-0.145 2.339-0.455 3.376-0.91l-0.076 0.030c-0.79 1.133-1.74 2.090-2.831 2.862l-0.036 0.024c0.009 0.24 0.016 0.48 0.016 0.72 0 7.367-5.783 15.863-16.353 15.863-3.245 0-6.268-0.925-8.811-2.507 0.455 0.053 0.913 0.080 1.371 0.079 2.693 0 5.172-0.891 7.14-2.387-2.517-0.044-4.64-1.657-5.369-3.871 0.327 0.065 0.704 0.102 1.089 0.102 0.535 0 1.054-0.072 1.547-0.206l-0.041 0.010c-2.629-0.511-4.611-2.764-4.611-5.467v-0.073c0.753 0.414 1.646 0.669 2.595 0.698l0.009 0c-1.543-1.001-2.557-2.707-2.557-4.64 0-1.023 0.284-1.98 0.779-2.8 2.832 3.371 7.069 5.591 11.845 5.824-0.095-0.38-0.149-0.815-0.149-1.264 0-0.002 0-0.004 0-0.006v0c0-3.080 2.573-5.576 5.748-5.576zM30.005 7.573v0zM21.387 2.96c-3.927 0-7.18 2.868-7.68 6.575-3.213-0.645-6.136-2.347-8.236-4.841-0.369-0.437-0.918-0.712-1.53-0.712-0.723 0-1.356 0.383-1.708 0.958l-0.005 0.009c-0.67 1.093-1.066 2.417-1.066 3.833 0 0.934 0.172 1.828 0.487 2.651l-0.017-0.051c-0.328 0.364-0.516 0.84-0.516 1.341v0.072c0 1.959 0.775 3.776 2.060 5.139-0.073 0.344-0.057 0.703 0.056 1.047 0.459 1.365 1.254 2.514 2.288 3.39l0.011 0.009c-0.647 0.15-1.391 0.236-2.155 0.236-0.405 0-0.803-0.024-1.195-0.071l0.047 0.005c-0.072-0.009-0.155-0.014-0.239-0.014-1.105 0-2 0.895-2 2 0 0.714 0.374 1.341 0.938 1.695l0.008 0.005c2.796 1.762 6.197 2.808 9.842 2.808 0.009 0 0.017 0 0.026-0h-0.001c11.375 0 18.217-8.905 18.351-17.604 0.933-0.773 1.759-1.667 2.452-2.661 0.252-0.331 0.403-0.75 0.403-1.205 0-0.677-0.336-1.275-0.85-1.637l-0.006-0.004c0.051-0.168 0.080-0.36 0.080-0.56 0-1.105-0.895-2-2-2-0.368 0-0.713 0.099-1.009 0.273l0.009-0.005c-0.606 0.356-1.306 0.663-2.044 0.883l-0.068 0.017c-1.302-0.985-2.948-1.577-4.732-1.579h-0z"></path>
</symbol>
<symbol id="icon-facebook" viewBox="0 0 32 32">
<path d="M21.33 5.314h2.92v-5.088c-1.238-0.144-2.672-0.226-4.125-0.226-0.046 0-0.092 0-0.138 0l0.007-0c-4.212 0-7.094 2.65-7.094 7.52v4.48h-4.65v5.688h4.648v14.312h5.698v-14.31h4.46l0.708-5.69h-5.17v-3.92c0.002-1.644 0.444-2.768 2.736-2.768z"></path>
</symbol>
<symbol id="icon-linkedin" viewBox="0 0 32 32">
<path d="M31.992 32h0.008v-11.74c0-5.74-1.236-10.164-7.948-10.164-3.226 0-5.392 1.772-6.276 3.45h-0.094v-2.912h-6.362v21.366h6.628v-10.58c0-2.784 0.528-5.476 3.976-5.476 3.4 0 3.45 3.178 3.45 5.656v10.4h6.62zM0.528 10.636h6.634v21.364h-6.634v-21.364zM3.842 0c-2.12 0-3.84 1.72-3.84 3.84s1.72 3.88 3.84 3.88c2.122 0 3.844-1.76 3.844-3.88s-1.726-3.84-3.846-3.84z"></path>
</symbol>
<symbol id="icon-angle-right" viewBox="0 0 16 32">
<path d="M14.020 17.063l-8.501 8.498c-0.271 0.272-0.645 0.441-1.060 0.441s-0.789-0.169-1.059-0.441l-1.412-1.412c-0.272-0.27-0.44-0.645-0.44-1.059s0.168-0.788 0.44-1.059l6.025-6.027-6.025-6.025c-0.272-0.271-0.44-0.645-0.44-1.059s0.168-0.788 0.44-1.059l0-0 1.406-1.426c0.271-0.272 0.645-0.441 1.060-0.441s0.789 0.169 1.059 0.441l8.5 8.5c0.594 0.587 0.594 1.538 0.007 2.126z"></path>
</symbol>
</defs>
</svg>
